# xmcd CD database file
#
# Track frame offsets:
#	150
#	22153
#	44370
#
# Disc length: 879 seconds
#
# Revision: 0
# Processed by: cddbd v1.5.1PL0 Copyright (c) Steve Scherf et al.
# Submitted via: CDex 1.51
#
DISCID=21036d03
DTITLE=玖我なつき(千葉紗子) - 舞-HiME キャラクターソング Vol2.玖我なつき(千葉紗子) - 水辺の花
DYEAR=2004
DGENRE=Anime
TTITLE0=水辺の花
TTITLE1=サウンドシネマ「センチメンタル・メモリー」
TTITLE2=水辺の花(off vocal)
EXTD=YEAR: 2004/09/15
EXTT0=
EXTT1=
EXTT2=
PLAYORDER=
